 http://www.imdb.com/title/tt0377092

Cady Heron is a hit with The Plastics, the A-list girl clique at her new school, until she makes the mistake of falling for Aaron Samuels, the ex-boyfriend of alpha Plastic Regina George.

Director:
Mark Waters
Writers:
Rosalind Wiseman (book), Tina Fey (screenplay)
Stars:
Lindsay Lohan, Jonathan Bennett and Rachel McAdams 

Rating- 6.8

INFO-
General
Complete name                            :Mean Girls 2004 DVDRip x246 Esub 200MB - cRcWoRLd.mp4
Format                                   : MPEG-4
Format profile                           : Base Media / Version 2
Codec ID                                 : mp42
File size                                : 212 MiB
Duration                                 : 1h 36mn
Overall bit rate mode                    : Variable
Overall bit rate                         : 307 Kbps
Encoded date                             : UTC 2012-06-14 22:00:51

Video
ID                                       : 1
Format                                   : AVC
Format/Info                              : Advanced Video Codec
Format profile                           : Main@L2.1
Format settings, CABAC                   : Yes
Format settings, ReFrames                : 4 frames
Codec ID                                 : avc1
Codec ID/Info                            : Advanced Video Coding
Duration                                 : 1h 36mn
Bit rate mode                            : Variable
Bit rate                                 : 239 Kbps
Width                                    : 576 pixels
Height                                   : 304 pixels
Display aspect ratio                     : 1.895
Frame rate mode                          : Variable
Frame rate                               : 23.976 fps
Minimum frame rate                       : 23.974 fps
Maximum frame rate                       : 23.981 fps
Color space                              : YUV
Chroma subsampling                       : 4:2:0
Bit depth                                : 8 bits
Scan type                                : Progressive
Bits/(Pixel*Frame)                       : 0.057
Stream size                              : 165 MiB (78%)
Writing library                          : x264 core 112

Audio
ID                                       : 2
Format                                   : AAC
Format/Info                              : Advanced Audio Codec
Format profile                           : LC
Codec ID                                 : 40
Duration                                 : 1h 36mn
Bit rate mode                            : Variable
Bit rate                                 : 63.9 Kbps
Maximum bit rate                         : 121 Kbps
Channel(s)                               : 2 channels
Channel positions                        : Front: L R
Sampling rate                            : 22.05 KHz
Compression mode                         : Lossy
Delay relative to video                  : -83ms
Stream size                              : 44.3 MiB (21%)

SCREENS-
 
http://www.postimg.com/73000/photo-72500.jpg
 
http://www.postimg.com/73000/photo-72501.jpg
 
http://www.postimg.com/73000/photo-72502.jpg



TRY THE SAMPLE 1ST.

BEST For SMARTPHONES/IPAD/IPHONE/ANDROID Devices. For PC Best Use in VLC & MPC.

NEW Rips will Come SOOOOON.
